<?xml version="1.0" encoding="UTF-8"?>
<!DOCTYPE svg PUBLIC "-//W3C//DTD SVG 1.1//EN" "http://www.w3.org/Graphics/SVG/1.1/DTD/svg11.dtd">
<svg xmlns="http://www.w3.org/2000/svg" version="1.1" width="1024px" height="1024px" style="shape-rendering:geometricPrecision; text-rendering:geometricPrecision; image-rendering:optimizeQuality; fill-rule:evenodd; clip-rule:evenodd" xmlns:xlink="http://www.w3.org/1999/xlink">
<g><path style="opacity:1" fill="#006dba" d="M -0.5,-0.5 C 340.833,-0.5 682.167,-0.5 1023.5,-0.5C 1023.5,340.833 1023.5,682.167 1023.5,1023.5C 682.167,1023.5 340.833,1023.5 -0.5,1023.5C -0.5,682.167 -0.5,340.833 -0.5,-0.5 Z"/></g>
<g><path style="opacity:1" fill="#fefefe" d="M 649.5,578.5 C 648.115,579.574 646.949,580.907 646,582.5C 645.333,583.167 645.333,583.833 646,584.5C 673.368,612.035 700.868,639.368 728.5,666.5C 731.167,669.833 734.167,672.833 737.5,675.5C 758.465,696.965 779.632,718.299 801,739.5C 802.859,742.564 804.692,745.564 806.5,748.5C 809.734,765.629 804.401,779.463 790.5,790C 777.513,800.029 763.847,801.029 749.5,793C 696.574,741.073 644.074,688.907 592,636.5C 557.224,661.037 518.724,676.037 476.5,681.5C 450.697,683.551 425.031,682.551 399.5,678.5C 316.156,659.305 256.656,610.972 221,533.5C 200.538,481.356 196.871,428.023 210,373.5C 232.323,298.838 279.157,245.671 350.5,214C 416.768,188.846 482.768,189.513 548.5,216C 634.671,257.132 682.838,325.299 693,420.5C 696.239,478.226 681.739,530.893 649.5,578.5 Z"/></g>
<g><path style="opacity:1" fill="#016cba" d="M 621.5,455.5 C 621.649,454.448 621.483,453.448 621,452.5C 620.05,460.202 618.883,467.868 617.5,475.5C 617.543,476.416 617.876,477.083 618.5,477.5C 600.09,545.146 557.09,588.312 489.5,607C 450.194,615.918 412.194,612.418 375.5,596.5C 365.307,590.362 354.64,584.029 343.5,577.5C 312.151,555.284 290.984,525.618 280,488.5C 263.492,427.889 274.826,373.222 314,324.5C 368.212,268.488 432.712,251.988 507.5,275C 580.349,304.459 619.016,358.625 623.5,437.5C 623.348,443.704 622.681,449.704 621.5,455.5 Z"/></g>
<g><path style="opacity:1" fill="#fdfdfe" d="M 495.5,356.5 C 519.811,358.49 544.477,359.157 569.5,358.5C 577.401,361.644 579.901,367.311 577,375.5C 564.78,396.106 552.947,416.939 541.5,438C 553.2,459.231 565.033,480.398 577,501.5C 579.534,508.551 577.368,513.717 570.5,517C 545.16,517.167 519.827,517.667 494.5,518.5C 485.222,534.727 476.222,551.06 467.5,567.5C 463.757,573.761 459.757,579.928 455.5,586C 448.443,589.94 442.11,589.106 436.5,583.5C 430.353,571.205 423.686,559.205 416.5,547.5C 410.971,537.612 405.305,527.779 399.5,518C 374.5,517.667 349.5,517.333 324.5,517C 317.413,513.403 315.247,507.903 318,500.5C 330.086,479.996 341.92,459.33 353.5,438.5C 341.347,416.865 329.181,395.199 317,373.5C 315.658,366.684 318.158,361.851 324.5,359C 349.5,358.667 374.5,358.333 399.5,358C 412.663,334.67 426.33,311.67 440.5,289C 447.39,284.889 453.223,286.056 458,292.5C 470.274,314.061 482.774,335.394 495.5,356.5 Z"/></g>
<g><path style="opacity:1" fill="#046bb8" d="M 465.5,357.5 C 453.753,357.811 442.086,357.478 430.5,356.5C 436.139,346.517 441.805,336.517 447.5,326.5C 453.764,336.697 459.764,347.03 465.5,357.5 Z"/></g>
<g><path style="opacity:1" fill="#0140a4" d="M 430.5,356.5 C 442.086,357.478 453.753,357.811 465.5,357.5C 453.66,358.825 441.66,358.825 429.5,357.5C 429.624,356.893 429.957,356.56 430.5,356.5 Z"/></g>
<g><path style="opacity:1" fill="#0043a3" d="M 495.5,356.5 C 520.834,357.149 545.5,357.815 569.5,358.5C 544.477,359.157 519.811,358.49 495.5,356.5 Z"/></g>
<g><path style="opacity:1" fill="#024aa6" d="M 481.5,385.5 C 458.413,383.857 435.413,384.19 412.5,386.5C 412.804,385.85 413.137,385.183 413.5,384.5C 424.833,384.167 436.167,383.833 447.5,383.5C 459.187,383.501 470.52,384.168 481.5,385.5 Z"/></g>
<g><path style="opacity:1" fill="#034dab" d="M 542.5,385.5 C 532.577,384.36 522.577,384.193 512.5,385C 514.065,386.506 514.399,388.006 513.5,389.5C 512.639,387.614 511.639,385.78 510.5,384C 521.5,383.333 532.5,383.333 543.5,384C 542.944,384.383 542.611,384.883 542.5,385.5 Z"/></g>
<g><path style="opacity:1" fill="#006dba" d="M 481.5,385.5 C 489.07,397.633 496.404,409.966 503.5,422.5C 502.957,422.56 502.624,422.893 502.5,423.5C 505.167,428.167 507.833,432.833 510.5,437.5C 501.253,453.658 492.253,469.991 483.5,486.5C 483.123,488.258 482.456,489.925 481.5,491.5C 458.833,492.833 436.167,492.833 413.5,491.5C 403.283,473.785 393.283,455.951 383.5,438C 392.807,420.544 402.474,403.377 412.5,386.5C 435.413,384.19 458.413,383.857 481.5,385.5 Z"/></g>
<g><path style="opacity:1" fill="#0568b7" d="M 352.5,383.5 C 363.505,383.333 374.505,383.5 385.5,384C 379.959,393.583 374.293,403.083 368.5,412.5C 362.893,402.949 357.559,393.282 352.5,383.5 Z"/></g>
<g><path style="opacity:1" fill="#0669b9" d="M 542.5,385.5 C 537.345,394.473 532.178,403.473 527,412.5C 522.488,404.806 517.988,397.139 513.5,389.5C 514.399,388.006 514.065,386.506 512.5,385C 522.577,384.193 532.577,384.36 542.5,385.5 Z"/></g>
<g><path style="opacity:1" fill="#1357ae" d="M 503.5,422.5 C 506.237,427.638 509.237,432.638 512.5,437.5C 503.059,454.061 493.392,470.395 483.5,486.5C 492.253,469.991 501.253,453.658 510.5,437.5C 507.833,432.833 505.167,428.167 502.5,423.5C 502.624,422.893 502.957,422.56 503.5,422.5 Z"/></g>
<g><path style="opacity:1" fill="#0850ad" d="M 621.5,455.5 C 621.151,462.927 620.151,470.26 618.5,477.5C 617.876,477.083 617.543,476.416 617.5,475.5C 618.883,467.868 620.05,460.202 621,452.5C 621.483,453.448 621.649,454.448 621.5,455.5 Z"/></g>
<g><path style="opacity:1" fill="#0f4fab" d="M 352.5,491.5 C 362.506,491.666 372.506,491.5 382.5,491C 381.833,490.667 381.167,490.333 380.5,490C 381.451,489.282 381.617,488.449 381,487.5C 376.546,480.594 372.38,473.594 368.5,466.5C 365.737,471.037 362.737,475.37 359.5,479.5C 362.053,474.062 364.887,468.729 368,463.5C 373.708,473.084 379.541,482.584 385.5,492C 373.755,492.822 362.755,492.655 352.5,491.5 Z"/></g>
<g><path style="opacity:1" fill="#026dba" d="M 352.5,491.5 C 354.332,487.164 356.665,483.164 359.5,479.5C 362.737,475.37 365.737,471.037 368.5,466.5C 372.38,473.594 376.546,480.594 381,487.5C 381.617,488.449 381.451,489.282 380.5,490C 381.167,490.333 381.833,490.667 382.5,491C 372.506,491.5 362.506,491.666 352.5,491.5 Z"/></g>
<g><path style="opacity:1" fill="#0469b7" d="M 526.5,462.5 C 532.013,472.352 537.68,482.186 543.5,492C 532.485,492.832 521.485,492.666 510.5,491.5C 515.862,481.816 521.195,472.15 526.5,462.5 Z"/></g>
<g><path style="opacity:1" fill="#046ab8" d="M 429.5,517.5 C 441.518,517.168 453.518,517.501 465.5,518.5C 459.333,528.833 453.167,539.167 447,549.5C 440.888,538.939 435.055,528.273 429.5,517.5 Z"/></g>
<g><path style="opacity:1" fill="#1056ae" d="M 416.5,547.5 C 423.686,559.205 430.353,571.205 436.5,583.5C 429.274,572.063 422.274,560.396 415.5,548.5C 415.624,547.893 415.957,547.56 416.5,547.5 Z"/></g>
<g><path style="opacity:1" fill="#0857af" d="M 467.5,567.5 C 464.596,574.921 460.596,581.754 455.5,588C 450.565,589.772 445.565,589.938 440.5,588.5C 439.808,589.025 439.308,589.692 439,590.5C 438.876,588.183 438.043,585.849 436.5,583.5C 442.11,589.106 448.443,589.94 455.5,586C 459.757,579.928 463.757,573.761 467.5,567.5 Z"/></g>
<g><path style="opacity:1" fill="#1156ae" d="M 343.5,577.5 C 354.64,584.029 365.307,590.362 375.5,596.5C 363.834,591.674 353.168,585.341 343.5,577.5 Z"/></g>
<g><path style="opacity:1" fill="#0251ad" d="M 649.5,578.5 C 648.65,580.494 648.15,582.494 648,584.5C 675.392,611.391 702.225,638.724 728.5,666.5C 700.868,639.368 673.368,612.035 646,584.5C 645.333,583.833 645.333,583.167 646,582.5C 646.949,580.907 648.115,579.574 649.5,578.5 Z"/></g>
<g><path style="opacity:1" fill="#095db3" d="M 399.5,678.5 C 425.031,682.551 450.697,683.551 476.5,681.5C 477.552,681.351 478.552,681.517 479.5,682C 457.398,685.708 435.565,685.541 414,681.5C 413.751,682.624 413.251,683.624 412.5,684.5C 410.885,683.846 409.218,683.346 407.5,683C 408.833,682.333 408.833,681.667 407.5,681C 404.543,680.721 401.877,679.887 399.5,678.5 Z"/></g>
<g><path style="opacity:1" fill="#0553ad" d="M 737.5,675.5 C 759.776,696.274 781.609,717.608 803,739.5C 804.741,742.309 805.908,745.309 806.5,748.5C 804.692,745.564 802.859,742.564 801,739.5C 779.632,718.299 758.465,696.965 737.5,675.5 Z"/></g>
</svg>
